<svg xmlns="http://www.w3.org/2000/svg" xmlns:xlink="http://www.w3.org/1999/xlink" aria-hidden="true" role="img" class="iconify iconify--logos" width="31.88" height="32" preserveAspectRatio="xMidYMid meet" viewBox="0 0 256 257"><defs><linearGradient id="IconifyId1813088fe1fbc01fb466" x1="-.828%" x2="57.636%" y1="7.652%" y2="78.411%"><stop offset="0%" stop-color="#FF00FF"></stop><stop offset="100%" stop-color="#FF8C00"></stop></linearGradient></defs><path fill="url(#IconifyId1813088fe1fbc01fb466)" d="M255.153 37.938L134.897 252.976c-2.483 4.44-8.862 4.466-11.382.048L.875 37.958c-2.746-4.814 1.371-10.646 6.827-10.646h242.576c5.498 0 9.322 5.955 6.875 10.626z"></path><path fill="#FFF" d="M185.432.063L96.44 17.501a6.366 6.366 0 0 0-5.369 5.654l-5.447 46.573a6.389 6.389 0 0 0 1.7 4.577l77.15 77.147a6.383 6.383 0 0 0 8.814.033L183.888 4.861a6.387 6.387 0 0 0-1.456-4.798z"></path><path fill="#FF00FF" d="M185.432.063L96.44 17.501a6.366 6.366 0 0 0-5.369 5.654l-5.447 46.573a6.389 6.389 0 0 0 1.7 4.577l77.15 77.147a6.383 6.383 0 0 0 8.814.033L183.888 4.861a6.387 6.387 0 0 0-1.456-4.798z"></path></svg>